<svg width="621" height="234" fill="none" xmlns="http://www.w3.org/2000/svg"><path d="M94.07 219.74c-.006-26.511-.045-79.884-.052-106.61-12.824 13.872-27.86 30.493-27.86 30.915-.168 10.425-.082 39.618-.15 50.044-.013 1.764-.14 3.528-.262 6.425-2.769-1.98-5.1-3.195-6.798-5.031a7.698 7.698 0 0 1-1.453-4.805c-.082-17.079.018-34.158-.024-51.236-.03-12.222-.12-24.447-.336-36.666-.144-8.23-3.732-14.255-10.97-18.127-9.322-4.986-14.917-12.83-15.285-23.935-.196-6.173 1.62-12.236 5.157-17.215 3.538-4.978 8.592-8.585 14.351-10.24a25.873 25.873 0 0 1 17.408 1.11c5.519 2.376 10.104 6.598 13.022 11.99 5.934 10.95 4.41 25.828-4.483 34.535-1.134 1.11-4.59 4.47-5.755 5.55-4.606 4.274-5.21 6.824-5.342 13.3.386 6.113 1.025 28.628.858 29.889 6.055-6.157 20.169-22.728 21.525-24.261 13.01-14.7 20.899-21.958 23.749-37.805 5.318-29.562-15.106-58.602-44.489-63.765C33.483-2.065 2.664 25.024 3.003 60.007c.122 11.779 3.726 23.237 10.328 32.84a109.847 109.847 0 0 0 18.714 21.671c3.862 3.39 4.299 6.413 1.66 10.839a49.649 49.649 0 0 1-3.362 4.804 10.808 10.808 0 0 0-2.42 5.586c-.26 2.066.074 4.166.96 6.038.9 2.14 1.99 4.193 2.951 6.306 2.213 4.866 2.547 9.851-.418 14.392-2.973 4.554-2.945 8.483.522 12.696a20.158 20.158 0 0 1 2.74 5.771 12.892 12.892 0 0 1 .79 6.863 12.694 12.694 0 0 1-2.857 6.249c-6.035 7.92-4.638 15.404 3.804 20.685 6.842 4.282 13.813 8.346 20.684 12.581 4.244 2.596 9.283 3.432 14.1 2.34 8.22-1.595 16.016-4.979 22.871-9.929M207.05 110.565c20.157 0 33.331-12.22 33.331-27.95 0-14.43-9.486-24.31-24.768-28.21l-10.671-2.73c-7.245-1.82-11.461-4.81-11.329-9.88.131-4.94 5.006-7.54 11.066-7.54 5.006 0 10.803 2.47 12.911 9.75h20.815c-.527-14.17-13.306-28.86-33.726-28.86-19.366 0-32.277 10.66-32.145 28.08.132 14.43 10.408 23.79 25.294 27.69l9.091 2.34c8.958 2.34 12.251 5.72 12.251 10.01 0 5.2-5.137 8.19-12.12 8.19-8.168 0-14.623-4.29-15.94-12.09h-20.947c.79 15.47 13.701 31.2 36.887 31.2Zm66.34-.13c8.827 0 15.282-4.42 17.917-7.93v6.5H311.2v-65h-19.893v6.5c-2.635-3.51-9.09-7.93-17.917-7.93-17.258 0-30.564 15.47-30.564 33.93s13.306 33.93 30.564 33.93Zm4.479-17.81c-8.958 0-15.018-6.76-15.018-16.12 0-9.36 6.06-16.12 15.018-16.12 8.959 0 15.019 6.76 15.019 16.12 0 9.36-6.06 16.12-15.019 16.12Zm50.495 16.38h19.892v-47.97H366.7v-17.03h-18.444v-4.68c0-7.8 3.294-11.05 11.33-11.05 2.898 0 5.006.39 7.114 1.17v-17.29c-2.898-.91-6.587-1.43-11.857-1.43-14.623 0-26.479 9.62-26.479 26.13v7.15h-13.175v17.03h13.175v47.97Zm70.9 1.43c16.599 0 30.3-9.49 34.516-23.01h-20.815c-1.581 3.51-6.851 6.11-12.648 6.11-10.671 0-15.677-5.85-16.599-12.48h50.72c.791-25.74-16.204-38.48-35.174-38.48-19.893 0-34.912 14.3-34.912 33.8 0 19.76 14.492 34.06 34.912 34.06Zm-.527-52.26c5.137 0 11.593 2.6 13.701 10.4h-28.193c1.713-5.98 6.587-10.4 14.492-10.4Zm41.458 50.83h19.893v-97.5h-19.893v97.5Zm56.701 27.17 40.971-92.17h-21.869l-16.204 40.17-16.336-40.17h-21.737l27.402 61.23-13.701 30.94h21.474Z" fill="#212F4C"/><path d="M169.828 217.005h20.947v-36.14h28.588v-19.76h-28.588v-16.64h33.624v-19.76h-54.571v92.3Zm72.469-67.84c6.982 0 12.515-5.46 12.515-12.22 0-6.76-5.533-12.22-12.515-12.22-6.719 0-12.384 5.46-12.384 12.22 0 6.76 5.665 12.22 12.384 12.22Zm-9.881 67.84h19.893v-62h-19.893v62Zm29.694 0h19.893v-31.59c0-11.7 5.796-17.03 13.305-17.03 7.114 0 10.671 5.46 10.671 14.43v34.19h19.893v-37.57c0-17.03-9.353-28.86-25.557-28.86-8.564 0-15.151 3.64-18.312 8.06v-6.63H262.11v65Zm99.275 1.43c8.826 0 15.282-4.42 17.916-7.93v6.5h19.893v-65h-19.893v6.5c-2.634-3.51-9.09-7.93-17.916-7.93-17.258 0-30.564 15.47-30.564 33.93s13.306 33.93 30.564 33.93Zm4.479-17.81c-8.959 0-15.019-6.76-15.019-16.12 0-9.36 6.06-16.12 15.019-16.12 8.958 0 15.018 6.76 15.018 16.12 0 9.36-6.06 16.12-15.018 16.12Zm43.117 16.38h19.893v-31.59c0-11.7 5.796-17.03 13.305-17.03 7.114 0 10.671 5.46 10.671 14.43v34.19h19.893v-37.57c0-17.03-9.353-28.86-25.557-28.86-8.564 0-15.151 3.64-18.312 8.06v-6.63h-19.893v65Zm103.359 1.43c18.707 0 30.432-11.57 33.989-26.78h-20.552c-2.371 5.2-6.455 9.1-13.437 9.1-8.3 0-14.624-6.11-14.624-16.25s6.324-16.25 14.624-16.25c6.982 0 11.066 3.9 13.437 9.1h20.552c-3.557-15.21-15.282-26.78-33.989-26.78-20.025 0-34.648 15.08-34.648 33.93s14.623 33.93 34.648 33.93Zm69.839 0c16.599 0 30.3-9.49 34.516-23.01H595.88c-1.581 3.51-6.851 6.11-12.647 6.11-10.671 0-15.678-5.85-16.6-12.48h50.72c.791-25.74-16.204-38.48-35.174-38.48-19.893 0-34.912 14.3-34.912 33.8 0 19.76 14.492 34.06 34.912 34.06Zm-.527-52.26c5.138 0 11.593 2.6 13.701 10.4H567.16c1.713-5.98 6.587-10.4 14.492-10.4Z" fill="#809BCE"/></svg>